<svg xmlns="http://www.w3.org/2000/svg" xmlns:xlink="http://www.w3.org/1999/xlink" width="500" zoomAndPan="magnify" viewBox="0 0 375 374.999991" height="500" preserveAspectRatio="xMidYMid meet" version="1.0"><defs><g/><clipPath id="10b2abb427"><path d="M 86 169 L 159 169 L 159 231.878906 L 86 231.878906 Z M 86 169 " clip-rule="nonzero"/></clipPath><clipPath id="ccbd09f27d"><path d="M 86 168 L 112.933594 168 L 112.933594 214.628906 L 86 214.628906 Z M 86 168 " clip-rule="nonzero"/></clipPath><clipPath id="6d7943da74"><path d="M 79 168 L 112.933594 168 L 112.933594 214.628906 L 79 214.628906 Z M 79 168 " clip-rule="nonzero"/></clipPath><clipPath id="948c0b8887"><path d="M 33 135 L 117 135 L 117 264 L 33 264 Z M 33 135 " clip-rule="nonzero"/></clipPath><clipPath id="c2c19d53bc"><path d="M 52.449219 79.046875 L 199.742188 156.679688 L 126.304688 296.007812 L -20.988281 218.375 Z M 52.449219 79.046875 " clip-rule="nonzero"/></clipPath><clipPath id="3f92d35452"><path d="M 52.449219 79.046875 L 199.742188 156.679688 L 126.304688 296.007812 L -20.988281 218.375 Z M 52.449219 79.046875 " clip-rule="nonzero"/></clipPath><clipPath id="572eff1edc"><path d="M 16 114 L 150 114 L 150 217 L 16 217 Z M 16 114 " clip-rule="nonzero"/></clipPath><clipPath id="bb734944cd"><path d="M 52.449219 79.046875 L 199.742188 156.679688 L 126.304688 296.007812 L -20.988281 218.375 Z M 52.449219 79.046875 " clip-rule="nonzero"/></clipPath><clipPath id="1f06d1ff74"><path d="M 52.449219 79.046875 L 199.742188 156.679688 L 126.304688 296.007812 L -20.988281 218.375 Z M 52.449219 79.046875 " clip-rule="nonzero"/></clipPath><clipPath id="a80fd62cbd"><path d="M 56 192 L 148 192 L 148 262 L 56 262 Z M 56 192 " clip-rule="nonzero"/></clipPath><clipPath id="32f85b9735"><path d="M 52.449219 79.046875 L 199.742188 156.679688 L 126.304688 296.007812 L -20.988281 218.375 Z M 52.449219 79.046875 " clip-rule="nonzero"/></clipPath><clipPath id="c5432512a3"><path d="M 52.449219 79.046875 L 199.742188 156.679688 L 126.304688 296.007812 L -20.988281 218.375 Z M 52.449219 79.046875 " clip-rule="nonzero"/></clipPath></defs><path fill="#289db9" d="M 126.125 198.238281 L 126.125 211.867188 L 126.414062 212.152344 L 126.699219 212.152344 L 127.128906 212.441406 L 127.417969 212.441406 L 128.132812 212.871094 L 128.996094 213.015625 L 129.136719 213.15625 L 129.425781 213.15625 L 130.429688 213.589844 L 131.433594 213.589844 L 132.292969 214.019531 L 133.296875 214.019531 L 133.441406 214.160156 L 139.035156 214.160156 L 139.179688 214.019531 L 140.613281 213.875 L 141.042969 213.589844 L 141.90625 213.589844 L 142.046875 213.445312 L 142.480469 213.445312 L 143.339844 213.015625 L 144.199219 212.871094 L 144.773438 212.441406 L 145.203125 212.441406 L 145.777344 212.011719 L 146.636719 211.722656 L 147.070312 211.292969 L 147.644531 211.148438 L 148.074219 210.71875 L 148.789062 210.433594 L 149.21875 210.003906 L 149.9375 209.570312 L 151.800781 207.851562 L 151.945312 207.851562 L 152.089844 207.5625 L 151.945312 207.132812 L 151.660156 206.988281 L 150.222656 205.554688 L 150.222656 205.410156 L 149.078125 204.265625 L 148.933594 204.265625 L 148.789062 203.976562 L 148.503906 203.691406 L 148.359375 203.691406 L 147.929688 203.261719 L 147.929688 203.117188 L 146.066406 201.25 L 145.921875 201.25 L 145.0625 200.390625 L 144.917969 200.105469 L 144.628906 200.105469 L 144.488281 199.960938 L 144.34375 200.105469 L 144.054688 200.105469 L 143.484375 200.820312 L 143.050781 200.964844 L 141.761719 201.96875 L 141.472656 201.96875 L 140.613281 202.542969 L 139.898438 202.542969 L 138.75 203.117188 L 137.601562 203.117188 L 137.457031 203.261719 L 134.875 203.261719 L 134.734375 203.117188 L 133.730469 203.117188 L 133.585938 202.972656 L 133.296875 202.972656 L 132.867188 202.6875 L 132.4375 202.6875 L 132.292969 202.542969 L 131.71875 202.542969 L 131.148438 202.113281 L 130.574219 201.96875 L 130.140625 201.539062 L 129.710938 201.394531 L 129.136719 200.820312 L 128.996094 200.820312 L 127.703125 199.53125 L 127.558594 199.53125 L 127.128906 198.667969 L 126.988281 198.667969 L 126.554688 198.238281 Z M 126.125 198.238281 " fill-opacity="1" fill-rule="nonzero"/><g clip-path="url(#10b2abb427)"><path fill="#289db9" d="M 154.671875 178.730469 L 149.21875 173.28125 L 144.199219 170.554688 L 140.039062 169.40625 L 132.292969 169.40625 L 128.277344 170.554688 L 123.6875 172.851562 L 120.246094 175.71875 L 116.371094 180.882812 L 114.507812 185.328125 L 113.789062 190.207031 L 113.789062 210.71875 L 113.359375 212.871094 L 111.78125 216.027344 L 108.625 219.183594 L 106.472656 220.328125 L 103.460938 221.046875 L 99.589844 220.902344 L 97.722656 220.328125 L 94.425781 218.035156 L 93.5625 217.890625 L 86.535156 224.777344 L 86.390625 225.636719 L 89.691406 228.363281 L 92.992188 230.226562 L 99.445312 231.949219 L 104.609375 231.949219 L 108.480469 231.230469 L 114.363281 228.507812 L 117.234375 226.210938 L 120.53125 222.480469 L 122.683594 218.753906 L 123.832031 215.597656 L 124.546875 211.722656 L 124.691406 190.0625 L 124.976562 188.34375 L 126.699219 184.898438 L 130.859375 181.3125 L 133.730469 180.308594 L 137.746094 180.164062 L 142.621094 182.03125 L 145.492188 184.613281 L 146.207031 185.902344 L 145.777344 186.332031 L 127.992188 186.191406 L 126.699219 188.34375 L 126.125 190.636719 L 126.125 196.660156 L 126.554688 197.234375 L 157.683594 197.234375 L 158.257812 196.660156 L 158.6875 189.488281 L 157.539062 184.324219 Z M 154.671875 178.730469 " fill-opacity="1" fill-rule="nonzero"/></g><path fill="#289db9" d="M 79.9375 169.40625 L 79.648438 169.695312 L 79.648438 194.511719 L 80.082031 195.65625 L 80.082031 196.804688 L 80.65625 198.097656 L 80.796875 199.242188 L 81.226562 199.816406 L 81.371094 200.679688 L 83.808594 204.980469 L 85.386719 206.847656 L 88.832031 210.003906 L 91.554688 211.722656 L 95.859375 213.445312 L 99.445312 214.160156 L 104.609375 214.160156 L 108.480469 213.445312 L 109.199219 213.015625 L 111.496094 212.296875 L 112.070312 211.4375 L 112.210938 210.71875 L 112.210938 198.382812 L 111.925781 198.238281 L 111.207031 198.8125 L 111.0625 199.386719 L 108.050781 201.824219 L 106.761719 202.542969 L 104.035156 203.261719 L 101.882812 203.402344 L 99.300781 203.117188 L 96.433594 201.96875 L 94.28125 200.390625 L 92.847656 198.8125 L 91.699219 196.949219 L 91.125 195.65625 L 90.550781 193.21875 L 90.550781 178.730469 L 89.835938 175.863281 L 87.539062 172.5625 L 84.957031 170.554688 L 81.515625 169.40625 Z M 79.9375 169.40625 " fill-opacity="1" fill-rule="nonzero"/><g clip-path="url(#ccbd09f27d)"><path fill="#000000" d="M 156.816406 177.832031 L 151.175781 172.207031 L 145.976562 169.390625 L 141.671875 168.207031 L 133.652344 168.207031 L 129.496094 169.390625 L 124.742188 171.761719 L 121.179688 174.722656 L 117.167969 180.054688 L 115.238281 184.648438 L 114.496094 189.683594 L 114.496094 210.863281 L 114.050781 213.082031 L 112.417969 216.34375 L 109.152344 219.601562 L 106.921875 220.785156 L 103.804688 221.527344 L 99.796875 221.378906 L 97.867188 220.785156 L 94.449219 218.414062 L 93.558594 218.265625 L 86.28125 225.375 L 86.132812 226.265625 L 89.550781 229.078125 L 92.964844 231.003906 L 99.648438 232.78125 L 104.992188 232.78125 L 109.003906 232.042969 L 115.089844 229.226562 L 118.058594 226.859375 L 121.476562 223.007812 L 123.703125 219.15625 L 124.890625 215.898438 L 125.632812 211.898438 L 125.78125 189.535156 L 126.078125 187.757812 L 127.859375 184.203125 L 132.167969 180.5 L 135.136719 179.464844 L 139.292969 179.316406 L 144.34375 181.238281 L 147.3125 183.90625 L 148.054688 185.238281 L 147.609375 185.683594 L 129.199219 185.535156 L 127.859375 187.757812 L 127.265625 190.125 L 127.265625 196.347656 L 127.710938 196.941406 L 159.933594 196.941406 L 160.53125 196.347656 L 160.976562 188.941406 L 159.785156 183.609375 Z M 156.816406 177.832031 " fill-opacity="1" fill-rule="nonzero"/></g><g clip-path="url(#6d7943da74)"><path fill="#000000" d="M 79.453125 168.207031 L 79.15625 168.503906 L 79.15625 194.125 L 79.601562 195.3125 L 79.601562 196.496094 L 80.195312 197.828125 L 80.34375 199.011719 L 80.789062 199.605469 L 80.9375 200.496094 L 83.460938 204.9375 L 85.09375 206.863281 L 88.660156 210.121094 L 91.480469 211.898438 L 95.933594 213.675781 L 99.648438 214.417969 L 104.992188 214.417969 L 109.003906 213.675781 L 109.746094 213.230469 L 112.121094 212.492188 L 112.714844 211.601562 L 112.863281 210.863281 L 112.863281 198.125 L 112.566406 197.976562 L 111.824219 198.570312 L 111.675781 199.160156 L 108.558594 201.679688 L 107.21875 202.417969 L 104.398438 203.160156 L 102.171875 203.308594 L 99.5 203.011719 L 96.527344 201.828125 L 94.300781 200.199219 L 92.816406 198.570312 L 91.628906 196.644531 L 91.035156 195.3125 L 90.441406 192.792969 L 90.441406 177.832031 L 89.699219 174.871094 L 87.324219 171.464844 L 84.648438 169.390625 L 81.085938 168.207031 Z M 79.453125 168.207031 " fill-opacity="1" fill-rule="nonzero"/></g><g fill="#000000" fill-opacity="1"><g transform="translate(172.177347, 191.697234)"><g><path d="M 13.78125 -8.15625 L 13.78125 0 L 8.453125 0 L 8.453125 -8.21875 L -0.453125 -23.015625 L 5.1875 -23.015625 L 11.34375 -12.78125 L 17.484375 -23.015625 L 22.71875 -23.015625 Z M 13.78125 -8.15625 "/></g></g></g><g fill="#000000" fill-opacity="1"><g transform="translate(192.41981, 191.697234)"><g><path d="M 19.6875 -8.78125 C 19.6875 -8.707031 19.65625 -8.242188 19.59375 -7.390625 L 6.21875 -7.390625 C 6.457031 -6.296875 7.023438 -5.429688 7.921875 -4.796875 C 8.816406 -4.160156 9.9375 -3.84375 11.28125 -3.84375 C 12.195312 -3.84375 13.007812 -3.976562 13.71875 -4.25 C 14.4375 -4.53125 15.101562 -4.96875 15.71875 -5.5625 L 18.4375 -2.59375 C 16.769531 -0.6875 14.335938 0.265625 11.140625 0.265625 C 9.148438 0.265625 7.382812 -0.125 5.84375 -0.90625 C 4.3125 -1.6875 3.128906 -2.765625 2.296875 -4.140625 C 1.460938 -5.523438 1.046875 -7.09375 1.046875 -8.84375 C 1.046875 -10.570312 1.457031 -12.128906 2.28125 -13.515625 C 3.101562 -14.910156 4.234375 -16 5.671875 -16.78125 C 7.109375 -17.5625 8.710938 -17.953125 10.484375 -17.953125 C 12.210938 -17.953125 13.78125 -17.578125 15.1875 -16.828125 C 16.59375 -16.085938 17.691406 -15.019531 18.484375 -13.625 C 19.285156 -12.238281 19.6875 -10.625 19.6875 -8.78125 Z M 10.515625 -14.078125 C 9.359375 -14.078125 8.382812 -13.742188 7.59375 -13.078125 C 6.800781 -12.421875 6.316406 -11.523438 6.140625 -10.390625 L 14.859375 -10.390625 C 14.679688 -11.503906 14.195312 -12.394531 13.40625 -13.0625 C 12.625 -13.738281 11.660156 -14.078125 10.515625 -14.078125 Z M 10.515625 -14.078125 "/></g></g></g><g fill="#000000" fill-opacity="1"><g transform="translate(213.155669, 191.697234)"><g><path d="M 8.3125 0.265625 C 6.84375 0.265625 5.40625 0.0820312 4 -0.28125 C 2.601562 -0.644531 1.488281 -1.097656 0.65625 -1.640625 L 2.359375 -5.328125 C 3.148438 -4.816406 4.101562 -4.398438 5.21875 -4.078125 C 6.34375 -3.765625 7.441406 -3.609375 8.515625 -3.609375 C 10.679688 -3.609375 11.765625 -4.148438 11.765625 -5.234375 C 11.765625 -5.734375 11.46875 -6.09375 10.875 -6.3125 C 10.289062 -6.53125 9.382812 -6.71875 8.15625 -6.875 C 6.707031 -7.09375 5.507812 -7.34375 4.5625 -7.625 C 3.625 -7.90625 2.804688 -8.40625 2.109375 -9.125 C 1.421875 -9.851562 1.078125 -10.890625 1.078125 -12.234375 C 1.078125 -13.347656 1.398438 -14.335938 2.046875 -15.203125 C 2.703125 -16.066406 3.644531 -16.738281 4.875 -17.21875 C 6.113281 -17.707031 7.578125 -17.953125 9.265625 -17.953125 C 10.515625 -17.953125 11.757812 -17.8125 13 -17.53125 C 14.238281 -17.257812 15.265625 -16.882812 16.078125 -16.40625 L 14.359375 -12.75 C 12.804688 -13.632812 11.109375 -14.078125 9.265625 -14.078125 C 8.171875 -14.078125 7.347656 -13.921875 6.796875 -13.609375 C 6.253906 -13.304688 5.984375 -12.910156 5.984375 -12.421875 C 5.984375 -11.878906 6.28125 -11.5 6.875 -11.28125 C 7.46875 -11.0625 8.410156 -10.851562 9.703125 -10.65625 C 11.148438 -10.414062 12.332031 -10.15625 13.25 -9.875 C 14.164062 -9.601562 14.960938 -9.101562 15.640625 -8.375 C 16.328125 -7.65625 16.671875 -6.648438 16.671875 -5.359375 C 16.671875 -4.265625 16.335938 -3.289062 15.671875 -2.4375 C 15.015625 -1.582031 14.054688 -0.914062 12.796875 -0.4375 C 11.546875 0.03125 10.050781 0.265625 8.3125 0.265625 Z M 8.3125 0.265625 "/></g></g></g><g fill="#000000" fill-opacity="1"><g transform="translate(230.605334, 191.697234)"><g><path d="M 13.109375 -17.953125 C 15.304688 -17.953125 17.078125 -17.289062 18.421875 -15.96875 C 19.773438 -14.65625 20.453125 -12.707031 20.453125 -10.125 L 20.453125 0 L 15.3125 0 L 15.3125 -9.34375 C 15.3125 -10.738281 15.003906 -11.78125 14.390625 -12.46875 C 13.785156 -13.164062 12.898438 -13.515625 11.734375 -13.515625 C 10.441406 -13.515625 9.410156 -13.113281 8.640625 -12.3125 C 7.878906 -11.507812 7.5 -10.320312 7.5 -8.75 L 7.5 0 L 2.359375 0 L 2.359375 -24.390625 L 7.5 -24.390625 L 7.5 -15.84375 C 8.175781 -16.519531 8.992188 -17.039062 9.953125 -17.40625 C 10.921875 -17.769531 11.972656 -17.953125 13.109375 -17.953125 Z M 13.109375 -17.953125 "/></g></g></g><g fill="#000000" fill-opacity="1"><g transform="translate(253.312908, 191.697234)"><g><path d="M 9.5 -17.953125 C 12.238281 -17.953125 14.34375 -17.296875 15.8125 -15.984375 C 17.28125 -14.679688 18.015625 -12.71875 18.015625 -10.09375 L 18.015625 0 L 13.21875 0 L 13.21875 -2.203125 C 12.25 -0.554688 10.453125 0.265625 7.828125 0.265625 C 6.460938 0.265625 5.28125 0.0351562 4.28125 -0.421875 C 3.289062 -0.890625 2.53125 -1.523438 2 -2.328125 C 1.476562 -3.140625 1.21875 -4.0625 1.21875 -5.09375 C 1.21875 -6.738281 1.835938 -8.03125 3.078125 -8.96875 C 4.316406 -9.914062 6.226562 -10.390625 8.8125 -10.390625 L 12.890625 -10.390625 C 12.890625 -11.503906 12.546875 -12.363281 11.859375 -12.96875 C 11.179688 -13.570312 10.164062 -13.875 8.8125 -13.875 C 7.863281 -13.875 6.9375 -13.722656 6.03125 -13.421875 C 5.125 -13.128906 4.351562 -12.734375 3.71875 -12.234375 L 1.875 -15.8125 C 2.84375 -16.488281 4 -17.015625 5.34375 -17.390625 C 6.6875 -17.765625 8.070312 -17.953125 9.5 -17.953125 Z M 9.109375 -3.1875 C 9.984375 -3.1875 10.757812 -3.390625 11.4375 -3.796875 C 12.113281 -4.203125 12.597656 -4.800781 12.890625 -5.59375 L 12.890625 -7.390625 L 9.375 -7.390625 C 7.269531 -7.390625 6.21875 -6.703125 6.21875 -5.328125 C 6.21875 -4.671875 6.472656 -4.148438 6.984375 -3.765625 C 7.503906 -3.378906 8.210938 -3.1875 9.109375 -3.1875 Z M 9.109375 -3.1875 "/></g></g></g><g fill="#289db9" fill-opacity="1"><g transform="translate(172.177347, 226.164991)"><g><path d="M 20.546875 -4.28125 L 20.546875 0 L 2.734375 0 L 2.734375 -23.015625 L 20.125 -23.015625 L 20.125 -18.734375 L 8.015625 -18.734375 L 8.015625 -13.734375 L 18.703125 -13.734375 L 18.703125 -9.59375 L 8.015625 -9.59375 L 8.015625 -4.28125 Z M 20.546875 -4.28125 "/></g></g></g><g fill="#289db9" fill-opacity="1"><g transform="translate(194.227683, 226.164991)"><g><path d="M 13.109375 -17.953125 C 15.304688 -17.953125 17.078125 -17.289062 18.421875 -15.96875 C 19.773438 -14.65625 20.453125 -12.707031 20.453125 -10.125 L 20.453125 0 L 15.3125 0 L 15.3125 -9.34375 C 15.3125 -10.738281 15.003906 -11.78125 14.390625 -12.46875 C 13.785156 -13.164062 12.898438 -13.515625 11.734375 -13.515625 C 10.441406 -13.515625 9.410156 -13.113281 8.640625 -12.3125 C 7.878906 -11.507812 7.5 -10.320312 7.5 -8.75 L 7.5 0 L 2.359375 0 L 2.359375 -17.6875 L 7.265625 -17.6875 L 7.265625 -15.609375 C 7.941406 -16.359375 8.785156 -16.9375 9.796875 -17.34375 C 10.804688 -17.75 11.910156 -17.953125 13.109375 -17.953125 Z M 13.109375 -17.953125 "/></g></g></g><g fill="#289db9" fill-opacity="1"><g transform="translate(216.935257, 226.164991)"><g><path d="M 13.78125 -0.859375 C 13.269531 -0.484375 12.644531 -0.203125 11.90625 -0.015625 C 11.175781 0.171875 10.40625 0.265625 9.59375 0.265625 C 7.488281 0.265625 5.859375 -0.269531 4.703125 -1.34375 C 3.554688 -2.414062 2.984375 -3.992188 2.984375 -6.078125 L 2.984375 -13.34375 L 0.265625 -13.34375 L 0.265625 -17.296875 L 2.984375 -17.296875 L 2.984375 -21.59375 L 8.125 -21.59375 L 8.125 -17.296875 L 12.53125 -17.296875 L 12.53125 -13.34375 L 8.125 -13.34375 L 8.125 -6.140625 C 8.125 -5.398438 8.3125 -4.828125 8.6875 -4.421875 C 9.070312 -4.015625 9.617188 -3.8125 10.328125 -3.8125 C 11.140625 -3.8125 11.828125 -4.03125 12.390625 -4.46875 Z M 13.78125 -0.859375 "/></g></g></g><g fill="#289db9" fill-opacity="1"><g transform="translate(230.671401, 226.164991)"><g><path d="M 19.6875 -8.78125 C 19.6875 -8.707031 19.65625 -8.242188 19.59375 -7.390625 L 6.21875 -7.390625 C 6.457031 -6.296875 7.023438 -5.429688 7.921875 -4.796875 C 8.816406 -4.160156 9.9375 -3.84375 11.28125 -3.84375 C 12.195312 -3.84375 13.007812 -3.976562 13.71875 -4.25 C 14.4375 -4.53125 15.101562 -4.96875 15.71875 -5.5625 L 18.4375 -2.59375 C 16.769531 -0.6875 14.335938 0.265625 11.140625 0.265625 C 9.148438 0.265625 7.382812 -0.125 5.84375 -0.90625 C 4.3125 -1.6875 3.128906 -2.765625 2.296875 -4.140625 C 1.460938 -5.523438 1.046875 -7.09375 1.046875 -8.84375 C 1.046875 -10.570312 1.457031 -12.128906 2.28125 -13.515625 C 3.101562 -14.910156 4.234375 -16 5.671875 -16.78125 C 7.109375 -17.5625 8.710938 -17.953125 10.484375 -17.953125 C 12.210938 -17.953125 13.78125 -17.578125 15.1875 -16.828125 C 16.59375 -16.085938 17.691406 -15.019531 18.484375 -13.625 C 19.285156 -12.238281 19.6875 -10.625 19.6875 -8.78125 Z M 10.515625 -14.078125 C 9.359375 -14.078125 8.382812 -13.742188 7.59375 -13.078125 C 6.800781 -12.421875 6.316406 -11.523438 6.140625 -10.390625 L 14.859375 -10.390625 C 14.679688 -11.503906 14.195312 -12.394531 13.40625 -13.0625 C 12.625 -13.738281 11.660156 -14.078125 10.515625 -14.078125 Z M 10.515625 -14.078125 "/></g></g></g><g fill="#289db9" fill-opacity="1"><g transform="translate(251.40726, 226.164991)"><g><path d="M 7.265625 -15.359375 C 7.878906 -16.210938 8.707031 -16.859375 9.75 -17.296875 C 10.789062 -17.734375 11.988281 -17.953125 13.34375 -17.953125 L 13.34375 -13.21875 C 12.78125 -13.257812 12.398438 -13.28125 12.203125 -13.28125 C 10.734375 -13.28125 9.582031 -12.867188 8.75 -12.046875 C 7.914062 -11.222656 7.5 -9.988281 7.5 -8.34375 L 7.5 0 L 2.359375 0 L 2.359375 -17.6875 L 7.265625 -17.6875 Z M 7.265625 -15.359375 "/></g></g></g><g fill="#289db9" fill-opacity="1"><g transform="translate(265.439267, 226.164991)"><g><path d="M 12.828125 -17.953125 C 14.460938 -17.953125 15.953125 -17.570312 17.296875 -16.8125 C 18.648438 -16.0625 19.707031 -15 20.46875 -13.625 C 21.238281 -12.257812 21.625 -10.664062 21.625 -8.84375 C 21.625 -7.019531 21.238281 -5.421875 20.46875 -4.046875 C 19.707031 -2.679688 18.648438 -1.617188 17.296875 -0.859375 C 15.953125 -0.109375 14.460938 0.265625 12.828125 0.265625 C 10.566406 0.265625 8.789062 -0.445312 7.5 -1.875 L 7.5 6.375 L 2.359375 6.375 L 2.359375 -17.6875 L 7.265625 -17.6875 L 7.265625 -15.65625 C 8.535156 -17.1875 10.390625 -17.953125 12.828125 -17.953125 Z M 11.9375 -3.9375 C 13.25 -3.9375 14.328125 -4.378906 15.171875 -5.265625 C 16.015625 -6.160156 16.4375 -7.351562 16.4375 -8.84375 C 16.4375 -10.332031 16.015625 -11.519531 15.171875 -12.40625 C 14.328125 -13.289062 13.25 -13.734375 11.9375 -13.734375 C 10.625 -13.734375 9.546875 -13.289062 8.703125 -12.40625 C 7.859375 -11.519531 7.4375 -10.332031 7.4375 -8.84375 C 7.4375 -7.351562 7.859375 -6.160156 8.703125 -5.265625 C 9.546875 -4.378906 10.625 -3.9375 11.9375 -3.9375 Z M 11.9375 -3.9375 "/></g></g></g><g fill="#289db9" fill-opacity="1"><g transform="translate(288.113975, 226.164991)"><g><path d="M 7.265625 -15.359375 C 7.878906 -16.210938 8.707031 -16.859375 9.75 -17.296875 C 10.789062 -17.734375 11.988281 -17.953125 13.34375 -17.953125 L 13.34375 -13.21875 C 12.78125 -13.257812 12.398438 -13.28125 12.203125 -13.28125 C 10.734375 -13.28125 9.582031 -12.867188 8.75 -12.046875 C 7.914062 -11.222656 7.5 -9.988281 7.5 -8.34375 L 7.5 0 L 2.359375 0 L 2.359375 -17.6875 L 7.265625 -17.6875 Z M 7.265625 -15.359375 "/></g></g></g><g fill="#289db9" fill-opacity="1"><g transform="translate(302.145983, 226.164991)"><g><path d="M 2.359375 -17.6875 L 7.5 -17.6875 L 7.5 0 L 2.359375 0 Z M 4.9375 -20.15625 C 3.988281 -20.15625 3.21875 -20.425781 2.625 -20.96875 C 2.039062 -21.519531 1.75 -22.203125 1.75 -23.015625 C 1.75 -23.828125 2.039062 -24.503906 2.625 -25.046875 C 3.21875 -25.597656 3.988281 -25.875 4.9375 -25.875 C 5.875 -25.875 6.640625 -25.609375 7.234375 -25.078125 C 7.828125 -24.554688 8.125 -23.898438 8.125 -23.109375 C 8.125 -22.253906 7.828125 -21.546875 7.234375 -20.984375 C 6.640625 -20.429688 5.875 -20.15625 4.9375 -20.15625 Z M 4.9375 -20.15625 "/></g></g></g><g fill="#289db9" fill-opacity="1"><g transform="translate(312.037419, 226.164991)"><g><path d="M 8.3125 0.265625 C 6.84375 0.265625 5.40625 0.0820312 4 -0.28125 C 2.601562 -0.644531 1.488281 -1.097656 0.65625 -1.640625 L 2.359375 -5.328125 C 3.148438 -4.816406 4.101562 -4.398438 5.21875 -4.078125 C 6.34375 -3.765625 7.441406 -3.609375 8.515625 -3.609375 C 10.679688 -3.609375 11.765625 -4.148438 11.765625 -5.234375 C 11.765625 -5.734375 11.46875 -6.09375 10.875 -6.3125 C 10.289062 -6.53125 9.382812 -6.71875 8.15625 -6.875 C 6.707031 -7.09375 5.507812 -7.34375 4.5625 -7.625 C 3.625 -7.90625 2.804688 -8.40625 2.109375 -9.125 C 1.421875 -9.851562 1.078125 -10.890625 1.078125 -12.234375 C 1.078125 -13.347656 1.398438 -14.335938 2.046875 -15.203125 C 2.703125 -16.066406 3.644531 -16.738281 4.875 -17.21875 C 6.113281 -17.707031 7.578125 -17.953125 9.265625 -17.953125 C 10.515625 -17.953125 11.757812 -17.8125 13 -17.53125 C 14.238281 -17.257812 15.265625 -16.882812 16.078125 -16.40625 L 14.359375 -12.75 C 12.804688 -13.632812 11.109375 -14.078125 9.265625 -14.078125 C 8.171875 -14.078125 7.347656 -13.921875 6.796875 -13.609375 C 6.253906 -13.304688 5.984375 -12.910156 5.984375 -12.421875 C 5.984375 -11.878906 6.28125 -11.5 6.875 -11.28125 C 7.46875 -11.0625 8.410156 -10.851562 9.703125 -10.65625 C 11.148438 -10.414062 12.332031 -10.15625 13.25 -9.875 C 14.164062 -9.601562 14.960938 -9.101562 15.640625 -8.375 C 16.328125 -7.65625 16.671875 -6.648438 16.671875 -5.359375 C 16.671875 -4.265625 16.335938 -3.289062 15.671875 -2.4375 C 15.015625 -1.582031 14.054688 -0.914062 12.796875 -0.4375 C 11.546875 0.03125 10.050781 0.265625 8.3125 0.265625 Z M 8.3125 0.265625 "/></g></g></g><g fill="#289db9" fill-opacity="1"><g transform="translate(329.487084, 226.164991)"><g><path d="M 19.6875 -8.78125 C 19.6875 -8.707031 19.65625 -8.242188 19.59375 -7.390625 L 6.21875 -7.390625 C 6.457031 -6.296875 7.023438 -5.429688 7.921875 -4.796875 C 8.816406 -4.160156 9.9375 -3.84375 11.28125 -3.84375 C 12.195312 -3.84375 13.007812 -3.976562 13.71875 -4.25 C 14.4375 -4.53125 15.101562 -4.96875 15.71875 -5.5625 L 18.4375 -2.59375 C 16.769531 -0.6875 14.335938 0.265625 11.140625 0.265625 C 9.148438 0.265625 7.382812 -0.125 5.84375 -0.90625 C 4.3125 -1.6875 3.128906 -2.765625 2.296875 -4.140625 C 1.460938 -5.523438 1.046875 -7.09375 1.046875 -8.84375 C 1.046875 -10.570312 1.457031 -12.128906 2.28125 -13.515625 C 3.101562 -14.910156 4.234375 -16 5.671875 -16.78125 C 7.109375 -17.5625 8.710938 -17.953125 10.484375 -17.953125 C 12.210938 -17.953125 13.78125 -17.578125 15.1875 -16.828125 C 16.59375 -16.085938 17.691406 -15.019531 18.484375 -13.625 C 19.285156 -12.238281 19.6875 -10.625 19.6875 -8.78125 Z M 10.515625 -14.078125 C 9.359375 -14.078125 8.382812 -13.742188 7.59375 -13.078125 C 6.800781 -12.421875 6.316406 -11.523438 6.140625 -10.390625 L 14.859375 -10.390625 C 14.679688 -11.503906 14.195312 -12.394531 13.40625 -13.0625 C 12.625 -13.738281 11.660156 -14.078125 10.515625 -14.078125 Z M 10.515625 -14.078125 "/></g></g></g><g fill="#289db9" fill-opacity="1"><g transform="translate(350.222943, 226.164991)"><g><path d="M 8.3125 0.265625 C 6.84375 0.265625 5.40625 0.0820312 4 -0.28125 C 2.601562 -0.644531 1.488281 -1.097656 0.65625 -1.640625 L 2.359375 -5.328125 C 3.148438 -4.816406 4.101562 -4.398438 5.21875 -4.078125 C 6.34375 -3.765625 7.441406 -3.609375 8.515625 -3.609375 C 10.679688 -3.609375 11.765625 -4.148438 11.765625 -5.234375 C 11.765625 -5.734375 11.46875 -6.09375 10.875 -6.3125 C 10.289062 -6.53125 9.382812 -6.71875 8.15625 -6.875 C 6.707031 -7.09375 5.507812 -7.34375 4.5625 -7.625 C 3.625 -7.90625 2.804688 -8.40625 2.109375 -9.125 C 1.421875 -9.851562 1.078125 -10.890625 1.078125 -12.234375 C 1.078125 -13.347656 1.398438 -14.335938 2.046875 -15.203125 C 2.703125 -16.066406 3.644531 -16.738281 4.875 -17.21875 C 6.113281 -17.707031 7.578125 -17.953125 9.265625 -17.953125 C 10.515625 -17.953125 11.757812 -17.8125 13 -17.53125 C 14.238281 -17.257812 15.265625 -16.882812 16.078125 -16.40625 L 14.359375 -12.75 C 12.804688 -13.632812 11.109375 -14.078125 9.265625 -14.078125 C 8.171875 -14.078125 7.347656 -13.921875 6.796875 -13.609375 C 6.253906 -13.304688 5.984375 -12.910156 5.984375 -12.421875 C 5.984375 -11.878906 6.28125 -11.5 6.875 -11.28125 C 7.46875 -11.0625 8.410156 -10.851562 9.703125 -10.65625 C 11.148438 -10.414062 12.332031 -10.15625 13.25 -9.875 C 14.164062 -9.601562 14.960938 -9.101562 15.640625 -8.375 C 16.328125 -7.65625 16.671875 -6.648438 16.671875 -5.359375 C 16.671875 -4.265625 16.335938 -3.289062 15.671875 -2.4375 C 15.015625 -1.582031 14.054688 -0.914062 12.796875 -0.4375 C 11.546875 0.03125 10.050781 0.265625 8.3125 0.265625 Z M 8.3125 0.265625 "/></g></g></g><g fill="#289db9" fill-opacity="1"><g transform="translate(367.67416, 226.164991)"><g/></g></g><path stroke-linecap="round" transform="matrix(0, -0.75, 0.75, 0, 163.564595, 232.147367)" fill="none" stroke-linejoin="miter" d="M 1.498573 1.502416 L 85.857954 1.502416 " stroke="#000000" stroke-width="3" stroke-opacity="1" stroke-miterlimit="4"/><g clip-path="url(#948c0b8887)"><g clip-path="url(#c2c19d53bc)"><g clip-path="url(#3f92d35452)"><path fill="#000000" d="M 85.402344 262.878906 C 87.414062 263.277344 89.425781 263.574219 91.425781 263.78125 C 59.882812 254.378906 40.113281 222.332031 46.660156 189.40625 C 53.210938 156.480469 83.75 134.4375 116.484375 137.824219 C 114.558594 137.25 112.585938 136.757812 110.574219 136.355469 C 75.636719 129.402344 41.679688 152.09375 34.726562 187.03125 C 27.773438 221.96875 50.464844 255.925781 85.402344 262.878906 " fill-opacity="1" fill-rule="nonzero"/></g></g></g><g clip-path="url(#572eff1edc)"><g clip-path="url(#bb734944cd)"><g clip-path="url(#1f06d1ff74)"><path fill="#289db9" d="M 22.335938 211.132812 C 23.222656 213.117188 24.199219 215.039062 25.246094 216.894531 C 14.027344 183.867188 29.601562 147.117188 62.078125 132.585938 C 94.554688 118.050781 132.335938 130.925781 149.488281 161.300781 C 148.800781 159.28125 148.023438 157.273438 147.132812 155.289062 C 131.710938 120.824219 91.273438 105.390625 56.8125 120.8125 C 22.351562 136.234375 6.914062 176.671875 22.335938 211.132812 " fill-opacity="1" fill-rule="nonzero"/></g></g></g><g clip-path="url(#a80fd62cbd)"><g clip-path="url(#32f85b9735)"><g clip-path="url(#c5432512a3)"><path fill="#289db9" d="M 80.027344 238.011719 C 66.652344 225.605469 58.753906 209.503906 56.449219 192.738281 C 55.324219 211.539062 62.3125 230.671875 77.199219 244.476562 C 96.648438 262.507812 124.148438 266.410156 147.070312 256.664062 C 123.855469 261.472656 98.738281 255.355469 80.027344 238.011719 " fill-opacity="1" fill-rule="nonzero"/></g></g></g></svg>